<?xml version="1.0" encoding="UTF-8" standalone="no"?><svg xmlns="http://www.w3.org/2000/svg" xmlns:xlink="http://www.w3.org/1999/xlink" fill="#000000" height="93.6" preserveAspectRatio="xMidYMid meet" version="1" viewBox="6.1 213.0 492.0 93.6" width="492" zoomAndPan="magnify"><g fill="#ffffff" id="change1_1"><path d="M 273.738281 261.25 C 258.816406 289.597656 225.929688 300.421875 195.523438 297.132812 C 180.402344 295.5 160.222656 289.074219 157.261719 271.578125 C 156.238281 265.546875 158.90625 256.832031 165.699219 255.445312 C 175.214844 253.503906 178.101562 266.398438 174.859375 272.753906 C 167.523438 287.136719 145.476562 289.59375 131.324219 289.378906 C 123.113281 289.253906 113.859375 288.859375 106.613281 284.5625 C 99.792969 280.519531 94.871094 271.742188 100.09375 264.472656 C 102.601562 260.980469 107.398438 259.804688 111.105469 262.210938 C 116.183594 265.503906 114.257812 271.695312 110.53125 275.261719 C 105.628906 279.957031 97.941406 280.53125 91.519531 280.246094 C 75.921875 279.5625 60.722656 274.765625 45.101562 273.847656 C 34.421875 273.222656 12.585938 272.871094 7.933594 285.71875 C 6.097656 290.785156 8.929688 295.929688 13.632812 298.140625 C 19.582031 300.941406 25.777344 298.226562 30.511719 294.394531 C 30.941406 294.046875 31.113281 293.277344 30.941406 292.769531 C 29.667969 289.019531 26.78125 286.851562 22.777344 286.875 C 20.628906 286.886719 20.625 290.226562 22.777344 290.214844 C 24.398438 290.203125 27.164062 291.367188 25.949219 293.671875 C 25.5625 294.402344 22.828125 295.265625 22.054688 295.488281 C 18.875 296.40625 15.199219 295.976562 12.742188 293.582031 C 6.847656 287.835938 14.386719 281.832031 19.503906 279.871094 C 29.136719 276.179688 40.519531 276.597656 50.597656 277.636719 C 61.558594 278.765625 72.335938 281.144531 83.230469 282.71875 C 90.25 283.730469 97.671875 284.359375 104.5625 282.261719 C 110.457031 280.464844 116.164062 276.148438 117.453125 269.796875 C 118.632812 264 114.597656 259.019531 109.011719 257.84375 C 103.265625 256.640625 98.082031 260.007812 95.816406 265.21875 C 93.109375 271.445312 95.066406 278.355469 99.5625 283.1875 C 105.058594 289.082031 113.070312 291.210938 120.820312 292.078125 C 130.289062 293.136719 140.039062 293.050781 149.410156 291.238281 C 162.1875 288.773438 182.699219 280.066406 179.476562 263.574219 C 176.992188 250.867188 161.824219 248.105469 155.839844 259.839844 C 148.925781 273.390625 159.835938 287.90625 171.660156 294.066406 C 189.675781 303.445312 214.386719 303.027344 233.445312 297.320312 C 251.664062 291.867188 267.695312 279.890625 276.621094 262.933594 C 277.621094 261.035156 274.742188 259.347656 273.738281 261.25" fill="inherit"/><path d="M 228.378906 262.933594 C 245.546875 295.554688 286.25 306.625 320.449219 298.699219 C 334.53125 295.4375 351.734375 284.957031 351.3125 268.390625 C 351.027344 257.335938 338.578125 245.261719 329.074219 256.179688 C 318.101562 268.78125 331.773438 282.695312 343.386719 287.578125 C 351.820312 291.128906 361.011719 292.53125 370.117188 292.714844 C 378.8125 292.886719 388.5 292.574219 396.628906 289.15625 C 402.90625 286.515625 408.675781 281.402344 410.121094 274.492188 C 411.332031 268.710938 409.066406 262.003906 403.777344 258.992188 C 399.019531 256.285156 392.363281 257.679688 389.117188 262.125 C 385.296875 267.355469 388.230469 274.160156 392.574219 278.03125 C 398.167969 283.011719 406.300781 283.902344 413.480469 283.585938 C 423.980469 283.125 434.378906 280.53125 444.734375 278.921875 C 457.023438 277.007812 469.867188 275.78125 482.078125 278.847656 C 486.738281 280.015625 494.085938 282.921875 494.324219 288.714844 C 494.519531 293.320312 489.652344 296.179688 485.570312 295.964844 C 484.078125 295.886719 481.546875 295.3125 480.429688 294.46875 C 478.089844 292.703125 478.535156 290.191406 482.222656 290.214844 C 484.371094 290.226562 484.371094 286.886719 482.222656 286.875 C 478.222656 286.851562 475.332031 289.011719 474.058594 292.769531 C 473.886719 293.277344 474.058594 294.046875 474.488281 294.394531 C 478.753906 297.84375 484.070312 300.425781 489.648438 298.804688 C 493.894531 297.570312 497.464844 293.890625 497.636719 289.339844 C 498.082031 277.527344 481.179688 274.695312 472.636719 273.953125 C 456.460938 272.546875 440.410156 276.4375 424.542969 278.941406 C 417.738281 280.019531 410.695312 281.023438 403.847656 279.667969 C 397.28125 278.371094 384.902344 269.9375 393.128906 262.8125 C 401.382812 255.667969 409.09375 267.871094 406.351562 275.605469 C 403.546875 283.527344 394.742188 287.054688 387.132812 288.335938 C 371.546875 290.953125 352.527344 290.058594 338.808594 281.523438 C 332.28125 277.460938 326.320312 270.140625 329.414062 262.046875 C 332.785156 253.226562 342.726562 253.851562 346.425781 261.886719 C 353.628906 277.527344 335.992188 290.808594 323.007812 294.589844 C 289.699219 304.285156 248.128906 293.296875 231.261719 261.25 C 230.261719 259.347656 227.378906 261.03125 228.378906 262.933594" fill="inherit"/><path d="M 256.414062 266.316406 C 248.925781 250.496094 233.796875 239.457031 220.707031 228.519531 C 220.707031 229.699219 220.707031 230.878906 220.707031 232.058594 C 223.015625 229.789062 225.320312 227.519531 227.628906 225.246094 C 229.410156 223.492188 232.042969 219.664062 234.371094 218.742188 C 236.359375 217.953125 240.449219 219.136719 242.605469 219.359375 C 245.796875 219.6875 249.003906 219.910156 252.210938 220.03125 C 258.308594 220.261719 264.414062 220.113281 270.492188 219.59375 C 274.8125 219.226562 277.582031 219.078125 280.527344 222.722656 C 282.761719 225.484375 284.996094 228.246094 287.230469 231.007812 C 287.398438 229.699219 287.566406 228.386719 287.738281 227.074219 C 273.367188 237.441406 260.0625 250.285156 252.089844 266.316406 C 250.660156 269.191406 254.976562 271.734375 256.414062 268.84375 C 263.996094 253.59375 276.578125 241.273438 290.265625 231.398438 C 291.671875 230.386719 291.855469 228.804688 290.769531 227.46875 C 288.132812 224.203125 285.535156 220.898438 282.851562 217.671875 C 281.128906 215.605469 279.605469 214.101562 276.796875 213.984375 C 273.160156 213.832031 269.335938 214.726562 265.6875 214.921875 C 261.519531 215.144531 257.34375 215.183594 253.175781 215.054688 C 249.003906 214.925781 244.835938 214.625 240.691406 214.140625 C 238.136719 213.84375 235.34375 213.027344 232.851562 213.96875 C 230.425781 214.882812 228.644531 217.21875 226.855469 218.980469 C 223.625 222.160156 220.394531 225.339844 217.164062 228.519531 C 216.265625 229.40625 216.128906 231.195312 217.164062 232.058594 C 229.929688 242.722656 244.792969 253.429688 252.089844 268.84375 C 253.46875 271.753906 257.785156 269.21875 256.414062 266.316406" fill="inherit"/><path d="M 218.160156 232.957031 C 240.976562 233.609375 263.796875 233.617188 286.609375 232.972656 C 289.824219 232.882812 289.839844 227.875 286.609375 227.964844 C 263.796875 228.609375 240.976562 228.601562 218.160156 227.949219 C 214.9375 227.855469 214.941406 232.863281 218.160156 232.957031" fill="inherit"/><path d="M 245.335938 217.320312 C 245.097656 220.96875 244.351562 224.265625 243.449219 227.769531 C 243.015625 229.449219 242.664062 230.851562 243.023438 232.597656 C 243.75 236.125 245.675781 239.640625 246.710938 243.128906 C 249.046875 251.007812 251.105469 259.246094 251.777344 267.453125 C 252.035156 270.644531 257.046875 270.671875 256.785156 267.453125 C 256.148438 259.65625 254.355469 251.898438 252.277344 244.378906 C 251.320312 240.914062 250.261719 237.472656 248.914062 234.140625 C 246.925781 229.199219 249.996094 222.675781 250.34375 217.320312 C 250.554688 214.101562 245.542969 214.117188 245.335938 217.320312" fill="inherit"/><path d="M 256.6875 218.507812 C 257.953125 221.25 259.242188 223.984375 260.492188 226.730469 C 261.992188 230.03125 260.84375 231.414062 259.261719 234.554688 C 257.300781 238.441406 255.199219 242.378906 254.066406 246.605469 C 252.339844 253.054688 250.972656 260.777344 251.777344 267.453125 C 252.15625 270.613281 257.171875 270.652344 256.785156 267.453125 C 255.894531 260.066406 257.359375 251 260.21875 244.144531 C 262.042969 239.769531 266.210938 234.742188 266.589844 229.941406 C 266.933594 225.558594 262.785156 219.816406 261.011719 215.980469 C 259.660156 213.058594 255.339844 215.601562 256.6875 218.507812" fill="inherit"/></g></svg>